<svg xmlns="http://www.w3.org/2000/svg" xmlns:xlink="http://www.w3.org/1999/xlink" width="600" zoomAndPan="magnify" viewBox="0 0 450 449.999984" height="600" preserveAspectRatio="xMidYMid meet" version="1.0"><defs><filter x="0%" y="0%" width="100%" height="100%" id="98018d9c80"><feColorMatrix values="0 0 0 0 1 0 0 0 0 1 0 0 0 0 1 0 0 0 1 0" color-interpolation-filters="sRGB"/></filter><mask id="34cb32663e"><g filter="url(#98018d9c80)"><rect x="-45" width="540" fill="#000000" y="-44.999998" height="539.99998" fill-opacity="0.149"/></g></mask><clipPath id="3458bb2755"><path d="M 0.398438 1 L 170 1 L 170 113.679688 L 0.398438 113.679688 Z M 0.398438 1 " clip-rule="nonzero"/></clipPath><clipPath id="ed2fd38c39"><path d="M 0.398438 0.398438 L 170 0.398438 L 170 18 L 0.398438 18 Z M 0.398438 0.398438 " clip-rule="nonzero"/></clipPath><clipPath id="19bc62af79"><rect x="0" width="171" y="0" height="114"/></clipPath></defs><path fill="#505ea3" d="M 377.4375 353.382812 C 377.253906 353.761719 377.03125 353.972656 376.796875 353.992188 C 376.726562 353.992188 376.667969 354.011719 376.585938 354.011719 C 369.914062 353.863281 358.175781 319.5 341.269531 321.472656 C 341.082031 321.488281 340.90625 321.515625 340.722656 321.527344 C 340.722656 321.527344 356.796875 313.871094 364.90625 318.066406 C 377.472656 324.582031 379.4375 349.207031 377.4375 353.382812 Z M 377.4375 353.382812 " fill-opacity="1" fill-rule="nonzero"/><path fill="#c2d2dc" d="M 377.4375 353.382812 C 377.253906 353.761719 377.03125 353.972656 376.796875 353.992188 C 376.726562 353.992188 376.667969 354.011719 376.585938 354.011719 C 369.914062 353.863281 358.175781 319.5 341.269531 321.472656 C 341.269531 321.472656 359.917969 314.074219 368.691406 329.207031 C 374.253906 338.816406 376.511719 347.976562 377.4375 353.382812 Z M 377.4375 353.382812 " fill-opacity="1" fill-rule="nonzero"/><path fill="#505ea3" d="M 377.835938 374.769531 C 377.824219 374.769531 377.816406 374.769531 377.808594 374.769531 C 377.585938 374.761719 377.410156 374.558594 377.429688 374.335938 C 377.464844 373.796875 380.398438 323.414062 353.46875 319.710938 C 353.246094 319.683594 353.4375 318.566406 353.46875 318.34375 C 353.496094 318.121094 354.523438 318.34375 354.753906 318.378906 C 382.445312 322.183594 378.28125 373.835938 378.242188 374.382812 C 378.234375 374.605469 378.046875 374.769531 377.835938 374.769531 Z M 421.675781 333.269531 C 421.675781 333.269531 421.65625 333.269531 421.621094 333.253906 C 404.535156 330.660156 392.660156 365.292969 385.933594 365.738281 C 385.8125 365.757812 385.71875 365.757812 385.628906 365.738281 C 385.5 365.71875 385.378906 365.664062 385.277344 365.550781 C 382.84375 363.089844 384.425781 336.613281 397.546875 329.828125 C 405.414062 325.765625 420.804688 332.855469 421.675781 333.269531 Z M 421.675781 333.269531 " fill-opacity="1" fill-rule="nonzero"/><path fill="#c2d2dc" d="M 421.621094 333.261719 C 404.535156 330.671875 392.660156 365.300781 385.933594 365.746094 C 385.8125 365.765625 385.71875 365.765625 385.628906 365.746094 C 385.5 365.726562 385.378906 365.671875 385.277344 365.5625 C 386.433594 359.574219 388.550781 347.386719 395.625 338.703125 C 405.148438 327.023438 420.5 332.863281 421.621094 333.261719 Z M 421.621094 333.261719 " fill-opacity="1" fill-rule="nonzero"/><path fill="#505ea3" d="M 384.601562 386.523438 C 384.386719 386.523438 384.203125 386.359375 384.195312 386.136719 C 384.15625 385.589844 380.980469 334.445312 408.671875 330.632812 C 408.914062 330.597656 409.449219 330.671875 409.476562 330.890625 C 409.507812 331.113281 409.496094 331.53125 409.273438 331.566406 C 382.332031 335.269531 384.980469 385.542969 385.007812 386.078125 C 385.027344 386.300781 384.851562 386.503906 384.628906 386.515625 C 384.621094 386.523438 384.609375 386.523438 384.601562 386.523438 Z M 378.945312 330.882812 L 378.945312 330.929688 C 378.925781 331.050781 378.917969 331.085938 378.917969 331.085938 C 378.917969 331.085938 378.84375 331.03125 378.707031 330.910156 C 377.328125 329.699219 369.535156 322.175781 365.785156 304.773438 C 360.574219 280.710938 351.273438 275.195312 350.691406 274.882812 C 350.671875 274.863281 350.664062 274.863281 350.664062 274.863281 L 350.125 274.585938 C 350.3125 274.539062 350.488281 274.511719 350.664062 274.484375 C 363.65625 272.078125 373.496094 278.390625 377.242188 293.484375 C 381.390625 310.234375 379.222656 328.746094 378.945312 330.882812 Z M 378.945312 330.882812 " fill-opacity="1" fill-rule="nonzero"/><path fill="#c2d2dc" d="M 378.695312 330.910156 C 377.316406 329.699219 369.523438 322.175781 365.777344 304.773438 C 360.566406 280.710938 351.265625 275.195312 350.679688 274.882812 C 351.550781 275.03125 368.792969 278.472656 373.503906 298.351562 C 377.046875 313.371094 378.296875 325.542969 378.695312 330.910156 Z M 378.695312 330.910156 " fill-opacity="1" fill-rule="nonzero"/><path fill="#505ea3" d="M 380.695312 384.0625 C 380.464844 384.0625 380.289062 383.878906 380.289062 383.65625 L 380.296875 383.359375 C 380.601562 373.382812 383.128906 292.328125 359.160156 278.230469 C 358.964844 278.121094 359.851562 277.128906 360.066406 277.203125 C 384.332031 286.023438 381.621094 367.015625 381.121094 383.378906 L 381.113281 383.644531 C 381.101562 383.878906 380.925781 384.0625 380.695312 384.0625 Z M 380.695312 384.0625 " fill-opacity="1" fill-rule="nonzero"/><path fill="#505ea3" d="M 412.671875 285.933594 L 412.550781 285.988281 L 412.105469 286.199219 C 412.105469 286.199219 402.398438 291.261719 397.011719 316.121094 C 392.976562 334.769531 384.296875 342.082031 383.871094 342.394531 C 383.851562 342.339844 383.824219 342.136719 383.796875 341.804688 C 383.796875 341.804688 383.796875 341.804688 383.796875 341.785156 C 383.378906 338.316406 381.582031 320.777344 385.535156 304.8125 C 389.328125 289.550781 399.371094 283.265625 412.578125 285.914062 L 412.671875 285.914062 Z M 412.671875 285.933594 " fill-opacity="1" fill-rule="nonzero"/><path fill="#c2d2dc" d="M 412.585938 285.933594 C 412.585938 285.933594 412.585938 285.949219 412.558594 285.988281 L 412.117188 286.199219 C 412.117188 286.199219 402.40625 291.261719 397.019531 316.121094 C 392.984375 334.769531 384.304688 342.082031 383.878906 342.394531 C 383.859375 342.339844 383.832031 342.136719 383.804688 341.804688 C 383.804688 341.804688 383.804688 341.804688 383.804688 341.785156 C 386.527344 317.527344 390.839844 305.507812 394.726562 298.054688 C 399.546875 288.867188 412.585938 285.933594 412.585938 285.933594 Z M 412.585938 285.933594 " fill-opacity="1" fill-rule="nonzero"/><path fill="#505ea3" d="M 381.90625 385.023438 C 381.683594 385.023438 381.5 384.839844 381.5 384.617188 C 381.332031 357.878906 382.601562 297.59375 402.777344 288.726562 C 402.992188 288.632812 403.878906 287.515625 403.960938 287.71875 C 404.054688 287.929688 404.109375 289.226562 403.898438 289.320312 C 384.164062 297.992188 382.148438 358.027344 382.316406 384.609375 C 382.324219 384.839844 382.140625 385.023438 381.90625 385.023438 Z M 381.90625 385.023438 " fill-opacity="1" fill-rule="nonzero"/><path fill="#03254e" d="M 365.839844 373.882812 L 366.089844 376.816406 L 368.367188 402.5 C 368.476562 403.894531 369.636719 404.980469 371.042969 404.988281 L 392.855469 405.183594 C 394.273438 405.191406 395.4375 404.136719 395.578125 402.738281 L 398.03125 379.636719 L 398.03125 379.59375 L 398.605469 374.167969 Z M 365.839844 373.882812 " fill-opacity="1" fill-rule="nonzero"/><path fill="#dbe7ee" d="M 366.101562 376.816406 L 368.375 402.5 C 368.488281 403.894531 369.644531 404.980469 371.050781 404.988281 L 381.433594 405.082031 C 372.003906 401.324219 369.699219 392.945312 371.617188 386.523438 C 373.699219 379.574219 395.699219 379.609375 398.039062 379.628906 C 398.160156 379.628906 398.242188 379.628906 398.242188 379.628906 L 398.039062 379.582031 L 377.179688 375.195312 Z M 366.101562 376.816406 " fill-opacity="1" fill-rule="nonzero"/><path fill="#505ea3" d="M 364.867188 379.425781 L 399.492188 379.730469 C 400.085938 379.742188 400.566406 379.257812 400.574219 378.667969 L 400.601562 375.25 C 400.613281 374.660156 400.128906 374.179688 399.539062 374.167969 L 364.914062 373.863281 C 364.324219 373.855469 363.839844 374.335938 363.832031 374.925781 L 363.804688 378.34375 C 363.804688 378.933594 364.277344 379.425781 364.867188 379.425781 Z M 364.867188 379.425781 " fill-opacity="1" fill-rule="nonzero"/><path fill="#d2e1f7" d="M 344.414062 341.363281 L 149.625 341.363281 L 149.625 146.574219 L 344.414062 146.574219 Z M 344.414062 341.363281 " fill-opacity="1" fill-rule="nonzero"/><g mask="url(#34cb32663e)"><g transform="matrix(1, 0, 0, 1, 104, 56)"><g clip-path="url(#19bc62af79)"><g clip-path="url(#3458bb2755)"><path fill="#505ea3" d="M 4.894531 113.382812 L 165.367188 113.382812 C 167.625 113.382812 169.464844 111.550781 169.464844 109.285156 L 169.464844 5.507812 C 169.464844 3.25 167.632812 1.40625 165.367188 1.40625 L 4.894531 1.40625 C 2.636719 1.40625 0.792969 3.238281 0.792969 5.507812 L 0.792969 109.292969 C 0.792969 111.550781 2.636719 113.382812 4.894531 113.382812 Z M 4.894531 113.382812 " fill-opacity="1" fill-rule="nonzero"/></g><g clip-path="url(#ed2fd38c39)"><path fill="#03254e" d="M 0.980469 17.632812 L 169.640625 17.632812 L 169.640625 4.96875 C 169.640625 2.710938 167.808594 0.871094 165.542969 0.871094 L 5.070312 0.871094 C 2.8125 0.871094 0.96875 2.703125 0.96875 4.96875 L 0.96875 17.632812 Z M 0.980469 17.632812 " fill-opacity="1" fill-rule="nonzero"/></g><path fill="#ffffff" d="M 39.386719 9.253906 C 39.386719 9.578125 39.324219 9.886719 39.203125 10.183594 C 39.078125 10.480469 38.90625 10.742188 38.675781 10.96875 C 38.449219 11.199219 38.1875 11.371094 37.890625 11.496094 C 37.59375 11.617188 37.285156 11.679688 36.964844 11.679688 C 36.640625 11.679688 36.332031 11.617188 36.035156 11.496094 C 35.738281 11.371094 35.476562 11.199219 35.25 10.96875 C 35.019531 10.742188 34.84375 10.480469 34.722656 10.183594 C 34.597656 9.886719 34.539062 9.578125 34.539062 9.253906 C 34.539062 8.933594 34.597656 8.625 34.722656 8.328125 C 34.84375 8.03125 35.019531 7.769531 35.25 7.539062 C 35.476562 7.3125 35.738281 7.136719 36.035156 7.015625 C 36.332031 6.890625 36.640625 6.832031 36.964844 6.832031 C 37.285156 6.832031 37.59375 6.890625 37.890625 7.015625 C 38.1875 7.136719 38.449219 7.3125 38.675781 7.539062 C 38.90625 7.769531 39.078125 8.03125 39.203125 8.328125 C 39.324219 8.625 39.386719 8.933594 39.386719 9.253906 Z M 39.386719 9.253906 " fill-opacity="1" fill-rule="nonzero"/><path fill="#ffffff" d="M 27.800781 9.253906 C 27.800781 9.578125 27.738281 9.886719 27.617188 10.183594 C 27.492188 10.480469 27.316406 10.742188 27.089844 10.96875 C 26.863281 11.199219 26.601562 11.371094 26.304688 11.496094 C 26.007812 11.617188 25.695312 11.679688 25.375 11.679688 C 25.054688 11.679688 24.746094 11.617188 24.449219 11.496094 C 24.152344 11.371094 23.886719 11.199219 23.660156 10.96875 C 23.433594 10.742188 23.257812 10.480469 23.136719 10.183594 C 23.011719 9.886719 22.949219 9.578125 22.949219 9.253906 C 22.949219 8.933594 23.011719 8.625 23.136719 8.328125 C 23.257812 8.03125 23.433594 7.769531 23.660156 7.539062 C 23.886719 7.3125 24.152344 7.136719 24.449219 7.015625 C 24.746094 6.890625 25.054688 6.832031 25.375 6.832031 C 25.695312 6.832031 26.007812 6.890625 26.304688 7.015625 C 26.601562 7.136719 26.863281 7.3125 27.089844 7.539062 C 27.316406 7.769531 27.492188 8.03125 27.617188 8.328125 C 27.738281 8.625 27.800781 8.933594 27.800781 9.253906 Z M 27.800781 9.253906 " fill-opacity="1" fill-rule="nonzero"/><path fill="#ffffff" d="M 16.203125 9.253906 C 16.203125 9.578125 16.140625 9.886719 16.019531 10.183594 C 15.894531 10.480469 15.722656 10.742188 15.492188 10.96875 C 15.265625 11.199219 15.003906 11.371094 14.707031 11.496094 C 14.410156 11.617188 14.101562 11.679688 13.777344 11.679688 C 13.457031 11.679688 13.148438 11.617188 12.851562 11.496094 C 12.554688 11.371094 12.292969 11.199219 12.066406 10.96875 C 11.835938 10.742188 11.660156 10.480469 11.539062 10.183594 C 11.414062 9.886719 11.355469 9.578125 11.355469 9.253906 C 11.355469 8.933594 11.414062 8.625 11.539062 8.328125 C 11.660156 8.03125 11.835938 7.769531 12.066406 7.539062 C 12.292969 7.3125 12.554688 7.136719 12.851562 7.015625 C 13.148438 6.890625 13.457031 6.832031 13.777344 6.832031 C 14.101562 6.832031 14.410156 6.890625 14.707031 7.015625 C 15.003906 7.136719 15.265625 7.3125 15.492188 7.539062 C 15.722656 7.769531 15.894531 8.03125 16.019531 8.328125 C 16.140625 8.625 16.203125 8.933594 16.203125 9.253906 Z M 16.203125 9.253906 " fill-opacity="1" fill-rule="nonzero"/><path fill="#505ea3" d="M 22.96875 29.773438 L 63.570312 29.773438 L 63.570312 32.644531 L 22.96875 32.644531 Z M 22.96875 29.773438 " fill-opacity="0.498" fill-rule="nonzero"/><path fill="#d64e12" d="M 68.355469 29.773438 L 80.886719 29.773438 L 80.886719 32.644531 L 68.355469 32.644531 Z M 68.355469 29.773438 " fill-opacity="0.498" fill-rule="nonzero"/><path fill="#505ea3" d="M 13.546875 29.773438 L 16.980469 29.773438 L 16.980469 32.644531 L 13.546875 32.644531 Z M 13.546875 29.773438 " fill-opacity="1" fill-rule="nonzero"/><path fill="#505ea3" d="M 119.582031 29.773438 L 136.75 29.773438 L 136.75 32.644531 L 119.582031 32.644531 Z M 119.582031 29.773438 " fill-opacity="0.8" fill-rule="nonzero"/><path fill="#505ea3" d="M 86.894531 29.773438 L 115.890625 29.773438 L 115.890625 32.644531 L 86.894531 32.644531 Z M 86.894531 29.773438 " fill-opacity="0.498" fill-rule="nonzero"/><path fill="#505ea3" d="M 70.828125 83.980469 L 22.96875 83.980469 L 22.96875 86.847656 L 80.878906 86.847656 L 80.878906 83.980469 Z M 70.828125 83.980469 " fill-opacity="1" fill-rule="nonzero"/><path fill="#505ea3" d="M 13.546875 83.980469 L 16.980469 83.980469 L 16.980469 86.847656 L 13.546875 86.847656 Z M 13.546875 83.980469 " fill-opacity="1" fill-rule="nonzero"/><path fill="#505ea3" d="M 119.582031 83.980469 L 129.050781 83.980469 L 129.050781 86.847656 L 119.582031 86.847656 Z M 119.582031 83.980469 " fill-opacity="0.498" fill-rule="nonzero"/><path fill="#d64e12" d="M 86.894531 83.980469 L 115.890625 83.980469 L 115.890625 86.847656 L 86.894531 86.847656 Z M 86.894531 83.980469 " fill-opacity="0.498" fill-rule="nonzero"/><path fill="#505ea3" d="M 22.96875 38.808594 L 31.269531 38.808594 L 31.269531 41.675781 L 22.96875 41.675781 Z M 22.96875 38.808594 " fill-opacity="1" fill-rule="nonzero"/><path fill="#d64e12" d="M 34.898438 38.808594 L 81.691406 38.808594 L 81.691406 41.675781 L 34.898438 41.675781 Z M 34.898438 38.808594 " fill-opacity="0.498" fill-rule="nonzero"/><path fill="#505ea3" d="M 13.546875 38.808594 L 16.980469 38.808594 L 16.980469 41.675781 L 13.546875 41.675781 Z M 13.546875 38.808594 " fill-opacity="1" fill-rule="nonzero"/><path fill="#505ea3" d="M 86.894531 38.808594 L 156.59375 38.808594 L 156.59375 41.675781 L 86.894531 41.675781 Z M 86.894531 38.808594 " fill-opacity="0.498" fill-rule="nonzero"/><path fill="#505ea3" d="M 22.96875 93.011719 L 31.269531 93.011719 L 31.269531 95.882812 L 22.96875 95.882812 Z M 22.96875 93.011719 " fill-opacity="1" fill-rule="nonzero"/><path fill="#505ea3" d="M 90.207031 93.011719 L 98.507812 93.011719 L 98.507812 95.882812 L 90.207031 95.882812 Z M 90.207031 93.011719 " fill-opacity="1" fill-rule="nonzero"/><path fill="#d64e12" d="M 34.898438 93.011719 L 81.691406 93.011719 L 81.691406 95.882812 L 34.898438 95.882812 Z M 34.898438 93.011719 " fill-opacity="0.498" fill-rule="nonzero"/><path fill="#505ea3" d="M 13.546875 93.011719 L 16.980469 93.011719 L 16.980469 95.882812 L 13.546875 95.882812 Z M 13.546875 93.011719 " fill-opacity="1" fill-rule="nonzero"/><path fill="#505ea3" d="M 105.792969 93.011719 L 156.59375 93.011719 L 156.59375 95.882812 L 105.792969 95.882812 Z M 105.792969 93.011719 " fill-opacity="1" fill-rule="nonzero"/><path fill="#505ea3" d="M 22.96875 47.839844 L 48.226562 47.839844 L 48.226562 50.707031 L 22.96875 50.707031 Z M 22.96875 47.839844 " fill-opacity="0.298" fill-rule="nonzero"/><path fill="#505ea3" d="M 51.28125 47.839844 L 63.582031 47.839844 L 63.582031 50.707031 L 51.28125 50.707031 Z M 51.28125 47.839844 " fill-opacity="1" fill-rule="nonzero"/><path fill="#505ea3" d="M 13.546875 47.839844 L 16.980469 47.839844 L 16.980469 50.707031 L 13.546875 50.707031 Z M 13.546875 47.839844 " fill-opacity="1" fill-rule="nonzero"/><path fill="#505ea3" d="M 69.199219 47.839844 L 107.28125 47.839844 L 107.28125 50.707031 L 69.199219 50.707031 Z M 69.199219 47.839844 " fill-opacity="1" fill-rule="nonzero"/><path fill="#d64e12" d="M 111.417969 47.839844 L 156.59375 47.839844 L 156.59375 50.707031 L 111.417969 50.707031 Z M 111.417969 47.839844 " fill-opacity="0.498" fill-rule="nonzero"/><path fill="#505ea3" d="M 22.96875 56.882812 L 89.910156 56.882812 L 89.910156 59.75 L 22.96875 59.75 Z M 22.96875 56.882812 " fill-opacity="1" fill-rule="nonzero"/><path fill="#505ea3" d="M 13.546875 56.882812 L 16.980469 56.882812 L 16.980469 59.75 L 13.546875 59.75 Z M 13.546875 56.882812 " fill-opacity="1" fill-rule="nonzero"/><path fill="#505ea3" d="M 93.417969 56.882812 L 142.832031 56.882812 L 142.832031 59.75 L 93.417969 59.75 Z M 93.417969 56.882812 " fill-opacity="1" fill-rule="nonzero"/><path fill="#d64e12" d="M 22.96875 65.914062 L 57.332031 65.914062 L 57.332031 68.785156 L 22.96875 68.785156 Z M 22.96875 65.914062 " fill-opacity="0.498" fill-rule="nonzero"/><path fill="#505ea3" d="M 13.546875 65.914062 L 16.980469 65.914062 L 16.980469 68.785156 L 13.546875 68.785156 Z M 13.546875 65.914062 " fill-opacity="1" fill-rule="nonzero"/><path fill="#505ea3" d="M 77.324219 65.914062 L 142.832031 65.914062 L 142.832031 68.785156 L 77.324219 68.785156 Z M 77.324219 65.914062 " fill-opacity="0.498" fill-rule="nonzero"/><path fill="#505ea3" d="M 147.765625 65.914062 L 156.59375 65.914062 L 156.59375 68.785156 L 147.765625 68.785156 Z M 147.765625 65.914062 " fill-opacity="1" fill-rule="nonzero"/><path fill="#505ea3" d="M 61.894531 65.914062 L 70.726562 65.914062 L 70.726562 68.785156 L 61.894531 68.785156 Z M 61.894531 65.914062 " fill-opacity="1" fill-rule="nonzero"/><path fill="#505ea3" d="M 22.96875 74.949219 L 40.25 74.949219 L 40.25 77.816406 L 22.96875 77.816406 Z M 22.96875 74.949219 " fill-opacity="1" fill-rule="nonzero"/><path fill="#505ea3" d="M 57.8125 74.949219 L 75.09375 74.949219 L 75.09375 77.816406 L 57.8125 77.816406 Z M 57.8125 74.949219 " fill-opacity="1" fill-rule="nonzero"/><path fill="#505ea3" d="M 13.546875 74.949219 L 16.980469 74.949219 L 16.980469 77.816406 L 13.546875 77.816406 Z M 13.546875 74.949219 " fill-opacity="1" fill-rule="nonzero"/><path fill="#505ea3" d="M 81.535156 74.949219 L 126.300781 74.949219 L 126.300781 77.816406 L 81.535156 77.816406 Z M 81.535156 74.949219 " fill-opacity="0.298" fill-rule="nonzero"/><path fill="#d64e12" d="M 132.195312 74.949219 L 156.59375 74.949219 L 156.59375 77.816406 L 132.195312 77.816406 Z M 132.195312 74.949219 " fill-opacity="0.498" fill-rule="nonzero"/><path fill="#505ea3" d="M 44.941406 74.949219 L 53.769531 74.949219 L 53.769531 77.816406 L 44.941406 77.816406 Z M 44.941406 74.949219 " fill-opacity="0.498" fill-rule="nonzero"/></g></g></g><path fill="#d2e1f7" d="M 120.875 235.851562 L 96.847656 235.851562 L 96.847656 211.828125 L 120.875 211.828125 Z M 120.875 235.851562 " fill-opacity="1" fill-rule="nonzero"/><path fill="#d2e1f7" d="M 431.730469 193.148438 L 365.566406 193.148438 L 365.566406 126.984375 L 431.730469 126.984375 Z M 431.730469 193.148438 " fill-opacity="1" fill-rule="nonzero"/><path fill="#ce9789" d="M 246.980469 171.652344 C 246.980469 171.652344 252.246094 182.359375 252.597656 182.117188 C 252.96875 181.886719 264.832031 171.53125 264.832031 171.53125 L 260.890625 155.945312 L 257.371094 155.945312 L 248.347656 158.8125 Z M 232.125 176.371094 C 219.371094 176.878906 196.648438 242.265625 205.527344 243.523438 C 217.492188 251.828125 252.761719 179.675781 232.125 176.371094 Z M 232.125 176.371094 " fill-opacity="1" fill-rule="nonzero"/><path fill="#03254e" d="M 316.011719 405.859375 C 316.9375 405.773438 317.613281 404.949219 317.519531 404.027344 L 308.089844 307.929688 C 307.996094 307.015625 307.183594 306.347656 306.265625 306.429688 C 305.339844 306.515625 304.664062 307.339844 304.757812 308.265625 L 314.1875 404.359375 C 314.28125 405.265625 315.09375 405.941406 316.011719 405.859375 Z M 283.675781 405.859375 C 284.601562 405.773438 285.277344 404.949219 285.183594 404.027344 L 275.753906 307.929688 C 275.660156 307.015625 274.847656 306.347656 273.929688 306.429688 C 273.003906 306.515625 272.328125 307.339844 272.421875 308.265625 L 281.851562 404.359375 C 281.945312 405.265625 282.757812 405.941406 283.675781 405.859375 Z M 204.96875 405.859375 C 204.046875 405.773438 203.371094 404.949219 203.460938 404.027344 L 212.894531 307.929688 C 212.984375 307.015625 213.800781 306.347656 214.714844 306.429688 C 215.640625 306.515625 216.316406 307.339844 216.222656 308.265625 L 206.792969 404.359375 C 206.699219 405.265625 205.886719 405.941406 204.96875 405.859375 Z M 246.527344 405.859375 C 245.601562 405.773438 244.925781 404.949219 245.015625 404.027344 L 254.449219 307.929688 C 254.539062 307.015625 255.355469 306.347656 256.269531 306.429688 C 257.195312 306.515625 257.871094 307.339844 257.78125 308.265625 L 248.347656 404.359375 C 248.257812 405.265625 247.441406 405.941406 246.527344 405.859375 Z M 246.527344 405.859375 " fill-opacity="1" fill-rule="nonzero"/><path fill="#505ea3" d="M 203.398438 309.097656 C 203.398438 314.058594 207.421875 318.082031 212.382812 318.082031 L 311.457031 318.082031 C 313.929688 318.082031 316.1875 317.085938 317.816406 315.457031 C 319.4375 313.828125 320.445312 311.566406 320.445312 309.097656 C 320.445312 308.265625 320.335938 307.449219 320.101562 306.691406 C 319.066406 302.90625 315.585938 300.128906 311.457031 300.128906 L 212.382812 300.128906 C 209.914062 300.128906 207.65625 301.128906 206.027344 302.757812 C 204.941406 303.839844 204.148438 305.183594 203.738281 306.691406 C 203.507812 307.449219 203.398438 308.265625 203.398438 309.097656 Z M 203.398438 309.097656 " fill-opacity="1" fill-rule="nonzero"/><path fill="#505ea3" d="M 203.738281 306.691406 C 204.777344 310.476562 208.257812 313.253906 212.382812 313.253906 L 311.457031 313.253906 C 313.929688 313.253906 316.1875 312.253906 317.816406 310.625 C 318.898438 309.542969 319.695312 308.199219 320.101562 306.691406 C 319.066406 302.90625 315.585938 300.128906 311.457031 300.128906 L 212.382812 300.128906 C 209.914062 300.128906 207.65625 301.128906 206.027344 302.757812 C 204.941406 303.832031 204.148438 305.171875 203.738281 306.691406 Z M 322.824219 249.125 C 322.824219 275.972656 314.707031 297.730469 285.441406 297.730469 C 257.613281 297.730469 248.0625 275.972656 248.0625 249.125 C 248.0625 222.277344 245.71875 176.304688 285.441406 176.304688 C 326.460938 176.304688 322.824219 222.285156 322.824219 249.125 Z M 322.824219 249.125 " fill-opacity="1" fill-rule="nonzero"/><path fill="#505ea3" d="M 317.269531 249.125 C 317.269531 275.972656 309.152344 297.730469 279.890625 297.730469 C 252.058594 297.730469 242.507812 275.972656 242.507812 249.125 C 242.507812 222.277344 240.167969 176.304688 279.890625 176.304688 C 320.90625 176.304688 317.269531 222.285156 317.269531 249.125 Z M 317.269531 249.125 " fill-opacity="1" fill-rule="nonzero"/><path fill="#ce9789" d="M 260.75 280 C 264.339844 295.613281 247.90625 291.734375 234.457031 292.132812 C 213.132812 292.011719 173.214844 301.925781 168.292969 294.632812 C 156.1875 274.898438 249.023438 261.804688 254.058594 266.839844 C 256.371094 269.21875 258.863281 274.9375 260.75 280 Z M 260.75 280 " fill-opacity="1" fill-rule="nonzero"/><path fill="#ce9789" d="M 170.089844 285.746094 C 185.730469 274.722656 183.824219 366.617188 179.492188 387.503906 C 175.160156 408.394531 170.882812 376.703125 168.117188 343.246094 C 165.359375 309.792969 163.933594 290.078125 170.089844 285.746094 Z M 170.089844 285.746094 " fill-opacity="1" fill-rule="nonzero"/><path fill="#ce9789" d="M 184.683594 382.5 L 183.25 393.335938 L 169.71875 393.242188 L 169.542969 382.136719 Z M 184.683594 382.5 " fill-opacity="1" fill-rule="nonzero"/><path fill="#d64e12" d="M 169.773438 393.429688 C 169.773438 393.429688 167.875 398.082031 159.832031 404.210938 C 151.792969 410.335938 149.679688 409.015625 149.496094 411.289062 C 149.3125 413.578125 182.914062 411.585938 182.914062 411.585938 L 183.277344 393.382812 C 183.265625 393.382812 169.773438 392.9375 169.773438 393.429688 Z M 169.773438 393.429688 " fill-opacity="1" fill-rule="nonzero"/><path fill="#03254e" d="M 167.859375 384.710938 L 186.128906 384.832031 C 186.128906 384.832031 192.523438 333.328125 190.132812 309.679688 C 190.132812 309.679688 219.445312 307.46875 241.945312 304.96875 C 244.164062 304.730469 246.3125 304.480469 248.367188 304.21875 C 251.070312 303.886719 253.605469 303.5625 255.882812 303.230469 C 277.382812 300.121094 289.023438 299.40625 284.367188 273.855469 C 284.367188 273.855469 277.5 270.410156 269.902344 266.636719 C 269.070312 266.21875 268.21875 265.800781 267.367188 265.367188 L 267.359375 265.367188 C 259.09375 261.238281 250.800781 257.128906 250.21875 256.890625 C 249.023438 256.417969 228.847656 265.976562 228.847656 265.976562 C 228.847656 265.976562 173.660156 272.417969 165.785156 285.3125 C 157.898438 298.214844 167.859375 384.710938 167.859375 384.710938 Z M 167.859375 384.710938 " fill-opacity="1" fill-rule="nonzero"/><path fill="#ce9789" d="M 230.839844 380 L 230.78125 390.261719 L 247.230469 390.382812 L 247.191406 381.332031 Z M 230.839844 380 " fill-opacity="1" fill-rule="nonzero"/><path fill="#d64e12" d="M 230.625 390.113281 C 230.414062 394.167969 226.183594 408.03125 226.089844 411.550781 C 252.234375 412.214844 251.496094 417.472656 247.273438 390.199219 Z M 230.625 390.113281 " fill-opacity="1" fill-rule="nonzero"/><path fill="#03254e" d="M 228.839844 382.765625 L 248.949219 382.925781 C 253.726562 349.246094 253.679688 311.597656 254.402344 309.921875 C 254.578125 309.503906 255.660156 309.234375 257.472656 309.003906 L 257.484375 309.003906 C 262.945312 308.328125 274.949219 308.070312 288.542969 305.375 C 306.703125 301.792969 299.066406 278.15625 299.066406 278.15625 L 284.988281 272.828125 L 272.597656 265.402344 C 272.597656 265.402344 226.683594 276.480469 223.109375 290.335938 C 218.871094 306.71875 228.839844 382.765625 228.839844 382.765625 Z M 228.839844 382.765625 " fill-opacity="1" fill-rule="nonzero"/><path fill="#e8e4d8" d="M 257.011719 308.746094 L 257.464844 308.996094 L 257.472656 308.996094 C 262.933594 308.320312 274.9375 308.058594 288.535156 305.367188 C 306.691406 301.785156 299.058594 278.148438 299.058594 278.148438 L 284.980469 272.816406 C 285.675781 273.882812 293.113281 285.773438 287.894531 294.234375 C 282.453125 303.109375 265.96875 308.570312 257.011719 308.746094 Z M 257.011719 308.746094 " fill-opacity="1" fill-rule="nonzero"/><path fill="#d64e12" d="M 233.144531 173.78125 L 233.03125 189.847656 L 232.789062 221.542969 C 232.789062 221.542969 232.542969 221.953125 232.097656 222.683594 C 231.984375 222.859375 231.867188 223.0625 231.726562 223.273438 C 231.320312 223.921875 230.808594 224.746094 230.226562 225.710938 L 223.046875 220.878906 L 209.375 211.679688 C 212.875 202.65625 216.492188 193.9375 219.054688 189.179688 C 225.859375 176.519531 233.144531 173.78125 233.144531 173.78125 Z M 233.144531 173.78125 " fill-opacity="1" fill-rule="nonzero"/><path fill="#e8e4d8" d="M 233.023438 189.847656 L 232.78125 221.542969 C 232.78125 221.542969 232.53125 221.953125 232.085938 222.683594 C 231.976562 222.859375 231.855469 223.054688 231.71875 223.273438 C 231.308594 223.921875 230.800781 224.746094 230.21875 225.710938 L 223.035156 220.878906 C 223.285156 211.945312 223.148438 207.976562 223.035156 201.035156 C 222.90625 193.6875 225.304688 184.171875 225.304688 184.171875 C 225.304688 184.171875 229.191406 187.015625 233.023438 189.847656 Z M 233.023438 189.847656 " fill-opacity="1" fill-rule="nonzero"/><path fill="#d64e12" d="M 246.980469 170.78125 C 244.574219 170.949219 240.113281 171.558594 238.121094 171.984375 C 231.53125 173.398438 227.210938 176.675781 225.007812 184.746094 C 222.136719 195.261719 228.828125 265.960938 228.828125 265.960938 C 276.484375 260.941406 293.679688 279.933594 297.972656 278.859375 C 302.277344 277.789062 301.195312 275.992188 298.335938 258.433594 C 295.464844 240.878906 292.097656 193.335938 289.738281 183.191406 C 287.609375 174.03125 276.972656 172.019531 270.800781 171.640625 C 268.15625 171.476562 264.832031 171.34375 264.832031 171.34375 C 264.832031 171.34375 249.015625 181.859375 246.980469 170.78125 Z M 246.980469 170.78125 " fill-opacity="1" fill-rule="nonzero"/><path fill="#e8e4d8" d="M 276.667969 196.640625 C 276.667969 196.640625 286.210938 223.367188 287.285156 226.589844 C 288.359375 229.808594 287.765625 232.4375 282.980469 234.472656 C 278.195312 236.511719 290.503906 240.203125 290.746094 239.488281 C 290.988281 238.777344 306.867188 224.921875 305.914062 224.082031 C 304.960938 223.238281 276.667969 196.640625 276.667969 196.640625 Z M 276.667969 196.640625 " fill-opacity="1" fill-rule="nonzero"/><path fill="#ce9789" d="M 280.917969 179.027344 C 272.410156 188.550781 303.601562 250.347656 310.679688 244.839844 C 324.960938 242.015625 297.648438 166.496094 280.917969 179.027344 Z M 280.917969 179.027344 " fill-opacity="1" fill-rule="nonzero"/><path fill="#ce9789" d="M 308.765625 210.585938 C 308.765625 210.585938 319.039062 236.378906 314.613281 242.117188 C 310.199219 247.847656 267.800781 251.4375 267.800781 251.4375 L 266.007812 239.5 C 266.007812 239.5 295.449219 232.269531 295.539062 231.828125 C 295.632812 231.382812 288.375 218.65625 288.375 218.65625 Z M 308.765625 210.585938 " fill-opacity="1" fill-rule="nonzero"/><path fill="#d8a29a" d="M 245.324219 141.191406 L 255.929688 136.640625 L 264.574219 143.976562 C 264.574219 143.976562 264.554688 146.300781 264.367188 149.261719 C 265.164062 149.882812 266.027344 150.632812 266.007812 150.890625 C 265.96875 151.335938 263.5 158.101562 263.210938 158.195312 C 261.925781 163.320312 255.957031 168.179688 252.117188 168.117188 C 246.535156 168.03125 246.109375 161.953125 245.257812 157.175781 C 244.386719 152.410156 245.324219 141.191406 245.324219 141.191406 Z M 245.324219 141.191406 " fill-opacity="1" fill-rule="nonzero"/><path fill="#03254e" d="M 265.394531 156.113281 C 266.65625 153.59375 267.535156 150.78125 267.914062 145.152344 C 268.164062 141.460938 267.367188 137 264.527344 135.34375 C 261.683594 133.6875 259.085938 134.296875 257.019531 132.328125 C 254.957031 130.363281 252.671875 130.050781 250.28125 130.992188 C 247.894531 131.9375 247.386719 135.160156 245.074219 135.214844 C 242.757812 135.269531 238.871094 141.128906 244.914062 143.710938 C 245.535156 143.976562 246.921875 142.703125 246.921875 142.703125 C 246.921875 142.703125 251.707031 144.320312 255.199219 144.035156 C 258.6875 143.746094 260.445312 143.164062 260.445312 143.164062 L 260.933594 150.949219 C 260.933594 150.949219 263.710938 148.402344 264.683594 150.1875 C 265.277344 151.28125 262.832031 158.90625 262.183594 160.824219 C 261.757812 162.0625 264.75 157.398438 265.394531 156.113281 Z M 265.394531 156.113281 " fill-opacity="1" fill-rule="nonzero"/><path fill="#ce9789" d="M 315.492188 239.203125 C 315.464844 241.238281 314.207031 243.089844 312.441406 244.109375 C 298.613281 252.066406 237.417969 253.066406 239.140625 248.773438 C 239.046875 245.476562 315.695312 223.859375 315.492188 239.203125 Z M 315.492188 239.203125 " fill-opacity="1" fill-rule="nonzero"/><path fill="#ce9789" d="M 247.933594 245.0625 L 248.5625 244.523438 L 246.886719 243.65625 L 246.878906 243.65625 L 243.90625 242.285156 C 243.136719 241.941406 242.3125 241.777344 241.472656 241.832031 L 237.9375 242.941406 C 237.9375 242.941406 237.398438 243.949219 239.5 243.847656 C 240.046875 243.820312 240.816406 244.246094 241.425781 244.636719 L 239.371094 245.015625 L 234.78125 245.976562 C 233.511719 246.300781 234.855469 252.195312 237.296875 252.566406 L 238.585938 252.84375 C 240.398438 252.957031 241.777344 253.382812 243.488281 252.769531 L 248.007812 250.726562 Z M 247.933594 245.0625 " fill-opacity="1" fill-rule="nonzero"/><path fill="#d64e12" d="M 287.933594 220.257812 C 287.933594 220.257812 287.933594 220.257812 287.933594 220.25 C 283.582031 212.316406 278.113281 201.8125 276.667969 196.648438 C 276.667969 196.648438 267.117188 177.007812 274.214844 173.769531 C 275.167969 173.335938 277.167969 172.640625 278.148438 172.882812 C 285.425781 174.648438 293.011719 179.898438 298.121094 187.300781 C 301.535156 192.226562 306.082031 201.25 309.847656 210.6875 C 309.847656 210.6875 309.855469 210.699219 309.855469 210.714844 Z M 287.933594 220.257812 " fill-opacity="1" fill-rule="nonzero"/><path fill="#03254e" d="M 343.628906 405.859375 C 344.546875 405.773438 345.222656 404.960938 345.136719 404.035156 L 331.773438 260.871094 C 331.691406 259.953125 330.875 259.277344 329.949219 259.359375 C 329.035156 259.445312 328.359375 260.257812 328.441406 261.183594 L 341.804688 404.347656 C 341.890625 405.265625 342.703125 405.941406 343.628906 405.859375 Z M 84.535156 405.859375 C 83.617188 405.773438 82.941406 404.960938 83.027344 404.035156 L 96.390625 260.871094 C 96.472656 259.953125 97.289062 259.277344 98.214844 259.359375 C 99.128906 259.445312 99.804688 260.257812 99.722656 261.183594 L 86.347656 404.347656 C 86.265625 405.265625 85.453125 405.941406 84.535156 405.859375 Z M 84.535156 405.859375 " fill-opacity="1" fill-rule="nonzero"/><path fill="#03254e" d="M 85.144531 261.425781 L 343.007812 261.425781 C 345.914062 261.425781 348.265625 259.074219 348.265625 256.167969 C 348.265625 253.261719 345.914062 250.910156 343.007812 250.910156 L 85.144531 250.910156 C 82.238281 250.910156 79.890625 253.261719 79.890625 256.167969 C 79.890625 259.074219 82.25 261.425781 85.144531 261.425781 Z M 85.144531 261.425781 " fill-opacity="1" fill-rule="nonzero"/><path fill="#505ea3" d="M 244.960938 250.921875 L 195.871094 250.921875 L 195.871094 247.867188 L 241.898438 247.867188 C 243.589844 247.855469 244.960938 249.226562 244.960938 250.921875 Z M 244.960938 250.921875 " fill-opacity="1" fill-rule="nonzero"/><path fill="#9fbff4" d="M 156.824219 250.921875 L 219.804688 250.921875 L 213.761719 212.207031 C 213.585938 211.085938 212.625 210.253906 211.484375 210.253906 L 153.171875 210.253906 C 151.753906 210.253906 150.671875 211.511719 150.894531 212.910156 Z M 156.824219 250.921875 " fill-opacity="1" fill-rule="nonzero"/><path fill="#505ea3" d="M 46.40625 199.488281 L 206.878906 199.488281 C 209.136719 199.488281 210.976562 197.65625 210.976562 195.390625 L 210.976562 91.613281 C 210.976562 89.355469 209.144531 87.515625 206.878906 87.515625 L 46.40625 87.515625 C 44.144531 87.515625 42.304688 89.347656 42.304688 91.613281 L 42.304688 195.398438 C 42.304688 197.65625 44.144531 199.488281 46.40625 199.488281 Z M 46.40625 199.488281 " fill-opacity="1" fill-rule="nonzero"/><path fill="#03254e" d="M 42.488281 103.738281 L 211.152344 103.738281 L 211.152344 91.078125 C 211.152344 88.820312 209.320312 86.976562 207.054688 86.976562 L 46.582031 86.976562 C 44.320312 86.976562 42.480469 88.808594 42.480469 91.078125 L 42.480469 103.738281 Z M 42.488281 103.738281 " fill-opacity="1" fill-rule="nonzero"/><path fill="#ffffff" d="M 80.898438 95.351562 C 80.898438 95.675781 80.835938 95.984375 80.714844 96.28125 C 80.589844 96.578125 80.414062 96.839844 80.1875 97.066406 C 79.960938 97.292969 79.699219 97.46875 79.402344 97.59375 C 79.105469 97.714844 78.792969 97.777344 78.472656 97.777344 C 78.152344 97.777344 77.84375 97.714844 77.546875 97.59375 C 77.25 97.46875 76.984375 97.292969 76.757812 97.066406 C 76.53125 96.839844 76.355469 96.578125 76.234375 96.28125 C 76.109375 95.984375 76.046875 95.675781 76.046875 95.351562 C 76.046875 95.03125 76.109375 94.722656 76.234375 94.425781 C 76.355469 94.128906 76.53125 93.867188 76.757812 93.636719 C 76.984375 93.410156 77.25 93.234375 77.546875 93.113281 C 77.84375 92.988281 78.152344 92.929688 78.472656 92.929688 C 78.792969 92.929688 79.105469 92.988281 79.402344 93.113281 C 79.699219 93.234375 79.960938 93.410156 80.1875 93.636719 C 80.414062 93.867188 80.589844 94.128906 80.714844 94.425781 C 80.835938 94.722656 80.898438 95.03125 80.898438 95.351562 Z M 80.898438 95.351562 " fill-opacity="1" fill-rule="nonzero"/><path fill="#ffffff" d="M 69.3125 95.351562 C 69.3125 95.675781 69.25 95.984375 69.125 96.28125 C 69.003906 96.578125 68.828125 96.839844 68.601562 97.066406 C 68.375 97.292969 68.109375 97.46875 67.8125 97.59375 C 67.515625 97.714844 67.207031 97.777344 66.886719 97.777344 C 66.5625 97.777344 66.253906 97.714844 65.957031 97.59375 C 65.660156 97.46875 65.398438 97.292969 65.171875 97.066406 C 64.945312 96.839844 64.769531 96.578125 64.644531 96.28125 C 64.523438 95.984375 64.460938 95.675781 64.460938 95.351562 C 64.460938 95.03125 64.523438 94.722656 64.644531 94.425781 C 64.769531 94.128906 64.945312 93.867188 65.171875 93.636719 C 65.398438 93.410156 65.660156 93.234375 65.957031 93.113281 C 66.253906 92.988281 66.5625 92.929688 66.886719 92.929688 C 67.207031 92.929688 67.515625 92.988281 67.8125 93.113281 C 68.109375 93.234375 68.375 93.410156 68.601562 93.636719 C 68.828125 93.867188 69.003906 94.128906 69.125 94.425781 C 69.25 94.722656 69.3125 95.03125 69.3125 95.351562 Z M 69.3125 95.351562 " fill-opacity="1" fill-rule="nonzero"/><path fill="#ffffff" d="M 57.714844 95.351562 C 57.714844 95.675781 57.652344 95.984375 57.53125 96.28125 C 57.40625 96.578125 57.230469 96.839844 57.003906 97.066406 C 56.777344 97.292969 56.515625 97.46875 56.21875 97.59375 C 55.921875 97.714844 55.609375 97.777344 55.289062 97.777344 C 54.96875 97.777344 54.660156 97.714844 54.363281 97.59375 C 54.0625 97.46875 53.800781 97.292969 53.574219 97.066406 C 53.347656 96.839844 53.171875 96.578125 53.050781 96.28125 C 52.925781 95.984375 52.863281 95.675781 52.863281 95.351562 C 52.863281 95.03125 52.925781 94.722656 53.050781 94.425781 C 53.171875 94.128906 53.347656 93.867188 53.574219 93.636719 C 53.800781 93.410156 54.0625 93.234375 54.363281 93.113281 C 54.660156 92.988281 54.96875 92.929688 55.289062 92.929688 C 55.609375 92.929688 55.921875 92.988281 56.21875 93.113281 C 56.515625 93.234375 56.777344 93.410156 57.003906 93.636719 C 57.230469 93.867188 57.40625 94.128906 57.53125 94.425781 C 57.652344 94.722656 57.714844 95.03125 57.714844 95.351562 Z M 57.714844 95.351562 " fill-opacity="1" fill-rule="nonzero"/><path fill="#505ea3" d="M 64.480469 115.878906 L 105.082031 115.878906 L 105.082031 118.75 L 64.480469 118.75 Z M 64.480469 115.878906 " fill-opacity="0.498" fill-rule="nonzero"/><path fill="#d64e12" d="M 109.867188 115.878906 L 122.398438 115.878906 L 122.398438 118.75 L 109.867188 118.75 Z M 109.867188 115.878906 " fill-opacity="0.498" fill-rule="nonzero"/><path fill="#505ea3" d="M 55.058594 115.878906 L 58.492188 115.878906 L 58.492188 118.75 L 55.058594 118.75 Z M 55.058594 115.878906 " fill-opacity="1" fill-rule="nonzero"/><path fill="#505ea3" d="M 161.09375 115.878906 L 178.261719 115.878906 L 178.261719 118.75 L 161.09375 118.75 Z M 161.09375 115.878906 " fill-opacity="0.8" fill-rule="nonzero"/><path fill="#505ea3" d="M 128.402344 115.878906 L 157.398438 115.878906 L 157.398438 118.75 L 128.402344 118.75 Z M 128.402344 115.878906 " fill-opacity="0.498" fill-rule="nonzero"/><path fill="#505ea3" d="M 112.335938 170.078125 L 64.480469 170.078125 L 64.480469 172.945312 L 122.386719 172.945312 L 122.386719 170.078125 Z M 112.335938 170.078125 " fill-opacity="1" fill-rule="nonzero"/><path fill="#505ea3" d="M 55.058594 170.078125 L 58.492188 170.078125 L 58.492188 172.945312 L 55.058594 172.945312 Z M 55.058594 170.078125 " fill-opacity="1" fill-rule="nonzero"/><path fill="#505ea3" d="M 161.09375 170.078125 L 170.558594 170.078125 L 170.558594 172.945312 L 161.09375 172.945312 Z M 161.09375 170.078125 " fill-opacity="0.498" fill-rule="nonzero"/><path fill="#d64e12" d="M 128.402344 170.078125 L 157.398438 170.078125 L 157.398438 172.945312 L 128.402344 172.945312 Z M 128.402344 170.078125 " fill-opacity="0.498" fill-rule="nonzero"/><path fill="#505ea3" d="M 64.480469 124.914062 L 72.78125 124.914062 L 72.78125 127.78125 L 64.480469 127.78125 Z M 64.480469 124.914062 " fill-opacity="1" fill-rule="nonzero"/><path fill="#d64e12" d="M 76.410156 124.914062 L 123.203125 124.914062 L 123.203125 127.78125 L 76.410156 127.78125 Z M 76.410156 124.914062 " fill-opacity="0.498" fill-rule="nonzero"/><path fill="#505ea3" d="M 55.058594 124.914062 L 58.492188 124.914062 L 58.492188 127.78125 L 55.058594 127.78125 Z M 55.058594 124.914062 " fill-opacity="1" fill-rule="nonzero"/><path fill="#505ea3" d="M 128.402344 124.914062 L 198.101562 124.914062 L 198.101562 127.78125 L 128.402344 127.78125 Z M 128.402344 124.914062 " fill-opacity="0.498" fill-rule="nonzero"/><path fill="#505ea3" d="M 64.480469 179.109375 L 72.78125 179.109375 L 72.78125 181.980469 L 64.480469 181.980469 Z M 64.480469 179.109375 " fill-opacity="1" fill-rule="nonzero"/><path fill="#505ea3" d="M 131.71875 179.109375 L 140.019531 179.109375 L 140.019531 181.980469 L 131.71875 181.980469 Z M 131.71875 179.109375 " fill-opacity="1" fill-rule="nonzero"/><path fill="#d64e12" d="M 76.410156 179.109375 L 123.203125 179.109375 L 123.203125 181.980469 L 76.410156 181.980469 Z M 76.410156 179.109375 " fill-opacity="0.498" fill-rule="nonzero"/><path fill="#505ea3" d="M 55.058594 179.109375 L 58.492188 179.109375 L 58.492188 181.980469 L 55.058594 181.980469 Z M 55.058594 179.109375 " fill-opacity="1" fill-rule="nonzero"/><path fill="#505ea3" d="M 147.300781 179.109375 L 198.101562 179.109375 L 198.101562 181.980469 L 147.300781 181.980469 Z M 147.300781 179.109375 " fill-opacity="1" fill-rule="nonzero"/><path fill="#505ea3" d="M 64.480469 133.945312 L 89.738281 133.945312 L 89.738281 136.816406 L 64.480469 136.816406 Z M 64.480469 133.945312 " fill-opacity="0.298" fill-rule="nonzero"/><path fill="#505ea3" d="M 92.789062 133.945312 L 105.089844 133.945312 L 105.089844 136.816406 L 92.789062 136.816406 Z M 92.789062 133.945312 " fill-opacity="1" fill-rule="nonzero"/><path fill="#505ea3" d="M 55.058594 133.945312 L 58.492188 133.945312 L 58.492188 136.816406 L 55.058594 136.816406 Z M 55.058594 133.945312 " fill-opacity="1" fill-rule="nonzero"/><path fill="#505ea3" d="M 110.707031 133.945312 L 148.792969 133.945312 L 148.792969 136.816406 L 110.707031 136.816406 Z M 110.707031 133.945312 " fill-opacity="1" fill-rule="nonzero"/><path fill="#d64e12" d="M 152.929688 133.945312 L 198.101562 133.945312 L 198.101562 136.816406 L 152.929688 136.816406 Z M 152.929688 133.945312 " fill-opacity="0.498" fill-rule="nonzero"/><path fill="#505ea3" d="M 64.480469 142.980469 L 131.421875 142.980469 L 131.421875 145.847656 L 64.480469 145.847656 Z M 64.480469 142.980469 " fill-opacity="1" fill-rule="nonzero"/><path fill="#505ea3" d="M 55.058594 142.980469 L 58.492188 142.980469 L 58.492188 145.847656 L 55.058594 145.847656 Z M 55.058594 142.980469 " fill-opacity="1" fill-rule="nonzero"/><path fill="#505ea3" d="M 134.929688 142.980469 L 184.339844 142.980469 L 184.339844 145.847656 L 134.929688 145.847656 Z M 134.929688 142.980469 " fill-opacity="1" fill-rule="nonzero"/><path fill="#d64e12" d="M 64.480469 152.011719 L 98.84375 152.011719 L 98.84375 154.882812 L 64.480469 154.882812 Z M 64.480469 152.011719 " fill-opacity="0.498" fill-rule="nonzero"/><path fill="#505ea3" d="M 55.058594 152.011719 L 58.492188 152.011719 L 58.492188 154.882812 L 55.058594 154.882812 Z M 55.058594 152.011719 " fill-opacity="1" fill-rule="nonzero"/><path fill="#505ea3" d="M 118.835938 152.011719 L 184.339844 152.011719 L 184.339844 154.882812 L 118.835938 154.882812 Z M 118.835938 152.011719 " fill-opacity="0.498" fill-rule="nonzero"/><path fill="#505ea3" d="M 189.273438 152.011719 L 198.101562 152.011719 L 198.101562 154.882812 L 189.273438 154.882812 Z M 189.273438 152.011719 " fill-opacity="1" fill-rule="nonzero"/><path fill="#505ea3" d="M 103.40625 152.011719 L 112.234375 152.011719 L 112.234375 154.882812 L 103.40625 154.882812 Z M 103.40625 152.011719 " fill-opacity="1" fill-rule="nonzero"/><path fill="#505ea3" d="M 64.480469 161.042969 L 81.757812 161.042969 L 81.757812 163.914062 L 64.480469 163.914062 Z M 64.480469 161.042969 " fill-opacity="1" fill-rule="nonzero"/><path fill="#505ea3" d="M 99.324219 161.042969 L 116.605469 161.042969 L 116.605469 163.914062 L 99.324219 163.914062 Z M 99.324219 161.042969 " fill-opacity="1" fill-rule="nonzero"/><path fill="#505ea3" d="M 55.058594 161.042969 L 58.492188 161.042969 L 58.492188 163.914062 L 55.058594 163.914062 Z M 55.058594 161.042969 " fill-opacity="1" fill-rule="nonzero"/><path fill="#505ea3" d="M 123.046875 161.042969 L 167.8125 161.042969 L 167.8125 163.914062 L 123.046875 163.914062 Z M 123.046875 161.042969 " fill-opacity="0.298" fill-rule="nonzero"/><path fill="#d64e12" d="M 173.707031 161.042969 L 198.101562 161.042969 L 198.101562 163.914062 L 173.707031 163.914062 Z M 173.707031 161.042969 " fill-opacity="0.498" fill-rule="nonzero"/><path fill="#505ea3" d="M 86.449219 161.042969 L 95.28125 161.042969 L 95.28125 163.914062 L 86.449219 163.914062 Z M 86.449219 161.042969 " fill-opacity="0.498" fill-rule="nonzero"/><path fill="#9fbff4" d="M 303.15625 177.714844 L 402.214844 177.714844 C 403.609375 177.714844 404.738281 176.582031 404.738281 175.1875 L 404.738281 111.125 C 404.738281 109.726562 403.609375 108.597656 402.214844 108.597656 L 303.15625 108.597656 C 301.757812 108.597656 300.628906 109.726562 300.628906 111.125 L 300.628906 175.1875 C 300.628906 176.574219 301.757812 177.714844 303.15625 177.714844 Z M 303.15625 177.714844 " fill-opacity="1" fill-rule="nonzero"/><path fill="#03254e" d="M 300.628906 118.933594 L 404.738281 118.933594 L 404.738281 111.113281 C 404.738281 109.714844 403.609375 108.585938 402.214844 108.585938 L 303.15625 108.585938 C 301.757812 108.585938 300.628906 109.714844 300.628906 111.113281 Z M 300.628906 118.933594 " fill-opacity="1" fill-rule="nonzero"/><path fill="#ffffff" d="M 324.332031 113.761719 C 324.332031 113.957031 324.292969 114.148438 324.21875 114.332031 C 324.144531 114.515625 324.035156 114.675781 323.894531 114.816406 C 323.757812 114.953125 323.59375 115.0625 323.414062 115.136719 C 323.230469 115.214844 323.039062 115.25 322.84375 115.25 C 322.644531 115.25 322.453125 115.214844 322.273438 115.136719 C 322.089844 115.0625 321.929688 114.953125 321.789062 114.816406 C 321.648438 114.675781 321.542969 114.515625 321.464844 114.332031 C 321.390625 114.148438 321.351562 113.957031 321.351562 113.761719 C 321.351562 113.5625 321.390625 113.375 321.464844 113.191406 C 321.542969 113.007812 321.648438 112.847656 321.789062 112.707031 C 321.929688 112.566406 322.089844 112.460938 322.273438 112.382812 C 322.453125 112.308594 322.644531 112.269531 322.84375 112.269531 C 323.039062 112.269531 323.230469 112.308594 323.414062 112.382812 C 323.59375 112.460938 323.757812 112.566406 323.894531 112.707031 C 324.035156 112.847656 324.144531 113.007812 324.21875 113.191406 C 324.292969 113.375 324.332031 113.5625 324.332031 113.761719 Z M 324.332031 113.761719 " fill-opacity="1" fill-rule="nonzero"/><path fill="#ffffff" d="M 317.179688 113.761719 C 317.179688 113.957031 317.140625 114.148438 317.066406 114.332031 C 316.988281 114.515625 316.882812 114.675781 316.742188 114.816406 C 316.601562 114.953125 316.441406 115.0625 316.257812 115.136719 C 316.074219 115.214844 315.886719 115.25 315.6875 115.25 C 315.492188 115.25 315.300781 115.214844 315.117188 115.136719 C 314.933594 115.0625 314.773438 114.953125 314.632812 114.816406 C 314.496094 114.675781 314.386719 114.515625 314.3125 114.332031 C 314.234375 114.148438 314.199219 113.957031 314.199219 113.761719 C 314.199219 113.5625 314.234375 113.375 314.3125 113.191406 C 314.386719 113.007812 314.496094 112.847656 314.632812 112.707031 C 314.773438 112.566406 314.933594 112.460938 315.117188 112.382812 C 315.300781 112.308594 315.492188 112.269531 315.6875 112.269531 C 315.886719 112.269531 316.074219 112.308594 316.257812 112.382812 C 316.441406 112.460938 316.601562 112.566406 316.742188 112.707031 C 316.882812 112.847656 316.988281 113.007812 317.066406 113.191406 C 317.140625 113.375 317.179688 113.5625 317.179688 113.761719 Z M 317.179688 113.761719 " fill-opacity="1" fill-rule="nonzero"/><path fill="#ffffff" d="M 310.023438 113.761719 C 310.023438 113.957031 309.984375 114.148438 309.910156 114.332031 C 309.835938 114.515625 309.726562 114.675781 309.585938 114.816406 C 309.449219 114.953125 309.285156 115.0625 309.105469 115.136719 C 308.921875 115.214844 308.730469 115.25 308.535156 115.25 C 308.335938 115.25 308.144531 115.214844 307.964844 115.136719 C 307.78125 115.0625 307.621094 114.953125 307.480469 114.816406 C 307.339844 114.675781 307.234375 114.515625 307.15625 114.332031 C 307.082031 114.148438 307.042969 113.957031 307.042969 113.761719 C 307.042969 113.5625 307.082031 113.375 307.15625 113.191406 C 307.234375 113.007812 307.339844 112.847656 307.480469 112.707031 C 307.621094 112.566406 307.78125 112.460938 307.964844 112.382812 C 308.144531 112.308594 308.335938 112.269531 308.535156 112.269531 C 308.730469 112.269531 308.921875 112.308594 309.105469 112.382812 C 309.285156 112.460938 309.449219 112.566406 309.585938 112.707031 C 309.726562 112.847656 309.835938 113.007812 309.910156 113.191406 C 309.984375 113.375 310.023438 113.5625 310.023438 113.761719 Z M 310.023438 113.761719 " fill-opacity="1" fill-rule="nonzero"/><path fill="#505ea3" d="M 361.539062 165.386719 C 359.972656 165.386719 357.992188 164.507812 355.761719 162.785156 C 352.746094 160.460938 349.550781 156.84375 346.765625 152.613281 C 343.980469 148.375 341.925781 144.015625 340.980469 140.324219 C 339.984375 136.417969 340.363281 133.660156 342.046875 132.546875 C 343.730469 131.4375 346.414062 132.1875 349.609375 134.648438 C 352.625 136.972656 355.816406 140.589844 358.601562 144.820312 C 363.832031 152.769531 367.027344 162.441406 363.324219 164.886719 C 362.816406 165.21875 362.214844 165.386719 361.539062 165.386719 Z M 343.859375 133.316406 C 343.425781 133.316406 343.046875 133.417969 342.742188 133.613281 C 341.566406 134.390625 341.371094 136.722656 342.210938 140.007812 C 343.121094 143.5625 345.117188 147.792969 347.820312 151.910156 C 350.53125 156.027344 353.625 159.535156 356.53125 161.777344 C 359.222656 163.847656 361.445312 164.597656 362.621094 163.820312 C 364.914062 162.3125 363.398438 154.417969 357.539062 145.515625 C 354.828125 141.394531 351.734375 137.890625 348.832031 135.648438 C 346.839844 134.121094 345.101562 133.316406 343.859375 133.316406 Z M 343.859375 133.316406 " fill-opacity="1" fill-rule="nonzero"/><path fill="#505ea3" d="M 343.832031 165.386719 C 343.15625 165.386719 342.554688 165.21875 342.046875 164.886719 C 338.34375 162.453125 341.539062 152.769531 346.765625 144.820312 C 349.550781 140.582031 352.746094 136.972656 355.761719 134.648438 C 358.957031 132.1875 361.640625 131.4375 363.324219 132.546875 C 365.007812 133.660156 365.386719 136.417969 364.386719 140.324219 C 363.445312 144.015625 361.390625 148.375 358.601562 152.613281 C 355.816406 156.851562 352.625 160.460938 349.609375 162.785156 C 347.378906 164.507812 345.398438 165.386719 343.832031 165.386719 Z M 361.507812 133.316406 C 360.269531 133.316406 358.53125 134.121094 356.539062 135.660156 C 353.632812 137.898438 350.542969 141.40625 347.832031 145.523438 C 341.972656 154.425781 340.453125 162.3125 342.75 163.832031 C 343.925781 164.609375 346.144531 163.859375 348.839844 161.785156 C 351.746094 159.546875 354.835938 156.039062 357.546875 151.917969 C 360.261719 147.800781 362.25 143.570312 363.15625 140.015625 C 364 136.722656 363.804688 134.390625 362.628906 133.621094 C 362.324219 133.410156 361.945312 133.316406 361.507812 133.316406 Z M 361.507812 133.316406 " fill-opacity="1" fill-rule="nonzero"/><path fill="#505ea3" d="M 352.691406 155.804688 C 343.175781 155.804688 333.335938 153.160156 333.335938 148.726562 C 333.335938 144.292969 343.175781 141.644531 352.691406 141.644531 C 362.203125 141.644531 372.042969 144.292969 372.042969 148.726562 C 372.042969 153.160156 362.203125 155.804688 352.691406 155.804688 Z M 352.691406 142.90625 C 342.027344 142.90625 334.605469 145.96875 334.605469 148.71875 C 334.605469 151.464844 342.035156 154.527344 352.691406 154.527344 C 363.34375 154.527344 370.773438 151.464844 370.773438 148.71875 C 370.773438 145.96875 363.34375 142.90625 352.691406 142.90625 Z M 352.691406 142.90625 " fill-opacity="1" fill-rule="nonzero"/><path fill="#505ea3" d="M 355.179688 148.71875 C 355.179688 149.105469 355.105469 149.484375 354.953125 149.84375 C 354.804688 150.203125 354.59375 150.523438 354.316406 150.796875 C 354.042969 151.074219 353.722656 151.285156 353.363281 151.4375 C 353 151.585938 352.625 151.660156 352.234375 151.660156 C 351.84375 151.660156 351.46875 151.585938 351.109375 151.4375 C 350.75 151.285156 350.429688 151.074219 350.15625 150.796875 C 349.878906 150.523438 349.667969 150.203125 349.515625 149.84375 C 349.367188 149.484375 349.292969 149.105469 349.292969 148.71875 C 349.292969 148.328125 349.367188 147.953125 349.515625 147.589844 C 349.667969 147.230469 349.878906 146.910156 350.15625 146.636719 C 350.429688 146.359375 350.75 146.148438 351.109375 145.996094 C 351.46875 145.847656 351.84375 145.773438 352.234375 145.773438 C 352.625 145.773438 353 145.847656 353.363281 145.996094 C 353.722656 146.148438 354.042969 146.359375 354.316406 146.636719 C 354.59375 146.910156 354.804688 147.230469 354.953125 147.589844 C 355.105469 147.953125 355.179688 148.328125 355.179688 148.71875 Z M 355.179688 148.71875 " fill-opacity="1" fill-rule="nonzero"/><path fill="#d2e1f7" d="M 304.777344 49.503906 L 331.976562 49.503906 L 331.976562 51.417969 L 304.777344 51.417969 Z M 304.777344 49.503906 " fill-opacity="0.498" fill-rule="nonzero"/><path fill="#d2e1f7" d="M 335.1875 49.503906 L 343.582031 49.503906 L 343.582031 51.417969 L 335.1875 51.417969 Z M 335.1875 49.503906 " fill-opacity="0.498" fill-rule="nonzero"/><path fill="#d2e1f7" d="M 298.464844 49.503906 L 300.769531 49.503906 L 300.769531 51.417969 L 298.464844 51.417969 Z M 298.464844 49.503906 " fill-opacity="1" fill-rule="nonzero"/><path fill="#d2e1f7" d="M 369.503906 49.503906 L 381.011719 49.503906 L 381.011719 51.417969 L 369.503906 51.417969 Z M 369.503906 49.503906 " fill-opacity="0.8" fill-rule="nonzero"/><path fill="#d2e1f7" d="M 347.609375 49.503906 L 367.035156 49.503906 L 367.035156 51.417969 L 347.609375 51.417969 Z M 347.609375 49.503906 " fill-opacity="0.498" fill-rule="nonzero"/><path fill="#d2e1f7" d="M 336.84375 85.820312 L 304.777344 85.820312 L 304.777344 87.734375 L 343.574219 87.734375 L 343.574219 85.820312 Z M 336.84375 85.820312 " fill-opacity="1" fill-rule="nonzero"/><path fill="#d2e1f7" d="M 298.464844 85.820312 L 300.769531 85.820312 L 300.769531 87.734375 L 298.464844 87.734375 Z M 298.464844 85.820312 " fill-opacity="1" fill-rule="nonzero"/><path fill="#d2e1f7" d="M 369.503906 85.820312 L 375.84375 85.820312 L 375.84375 87.734375 L 369.503906 87.734375 Z M 369.503906 85.820312 " fill-opacity="0.498" fill-rule="nonzero"/><path fill="#d2e1f7" d="M 347.609375 85.820312 L 367.035156 85.820312 L 367.035156 87.734375 L 347.609375 87.734375 Z M 347.609375 85.820312 " fill-opacity="0.498" fill-rule="nonzero"/><path fill="#d2e1f7" d="M 304.777344 55.554688 L 310.339844 55.554688 L 310.339844 57.472656 L 304.777344 57.472656 Z M 304.777344 55.554688 " fill-opacity="1" fill-rule="nonzero"/><path fill="#d2e1f7" d="M 312.773438 55.554688 L 344.121094 55.554688 L 344.121094 57.472656 L 312.773438 57.472656 Z M 312.773438 55.554688 " fill-opacity="0.498" fill-rule="nonzero"/><path fill="#d2e1f7" d="M 298.464844 55.554688 L 300.769531 55.554688 L 300.769531 57.472656 L 298.464844 57.472656 Z M 298.464844 55.554688 " fill-opacity="1" fill-rule="nonzero"/><path fill="#d2e1f7" d="M 347.609375 55.554688 L 394.300781 55.554688 L 394.300781 57.472656 L 347.609375 57.472656 Z M 347.609375 55.554688 " fill-opacity="0.498" fill-rule="nonzero"/><path fill="#d2e1f7" d="M 304.777344 91.871094 L 310.339844 91.871094 L 310.339844 93.789062 L 304.777344 93.789062 Z M 304.777344 91.871094 " fill-opacity="1" fill-rule="nonzero"/><path fill="#d2e1f7" d="M 349.828125 91.871094 L 355.390625 91.871094 L 355.390625 93.789062 L 349.828125 93.789062 Z M 349.828125 91.871094 " fill-opacity="1" fill-rule="nonzero"/><path fill="#d2e1f7" d="M 312.773438 91.871094 L 344.121094 91.871094 L 344.121094 93.789062 L 312.773438 93.789062 Z M 312.773438 91.871094 " fill-opacity="0.498" fill-rule="nonzero"/><path fill="#d2e1f7" d="M 298.464844 91.871094 L 300.769531 91.871094 L 300.769531 93.789062 L 298.464844 93.789062 Z M 298.464844 91.871094 " fill-opacity="1" fill-rule="nonzero"/><path fill="#d2e1f7" d="M 360.269531 91.871094 L 394.308594 91.871094 L 394.308594 93.789062 L 360.269531 93.789062 Z M 360.269531 91.871094 " fill-opacity="1" fill-rule="nonzero"/><path fill="#d2e1f7" d="M 304.777344 61.609375 L 321.695312 61.609375 L 321.695312 63.523438 L 304.777344 63.523438 Z M 304.777344 61.609375 " fill-opacity="0.298" fill-rule="nonzero"/><path fill="#d2e1f7" d="M 323.738281 61.609375 L 331.976562 61.609375 L 331.976562 63.523438 L 323.738281 63.523438 Z M 323.738281 61.609375 " fill-opacity="1" fill-rule="nonzero"/><path fill="#d2e1f7" d="M 298.464844 61.609375 L 300.769531 61.609375 L 300.769531 63.523438 L 298.464844 63.523438 Z M 298.464844 61.609375 " fill-opacity="1" fill-rule="nonzero"/><path fill="#d2e1f7" d="M 335.753906 61.609375 L 361.269531 61.609375 L 361.269531 63.523438 L 335.753906 63.523438 Z M 335.753906 61.609375 " fill-opacity="1" fill-rule="nonzero"/><path fill="#d2e1f7" d="M 364.035156 61.609375 L 394.300781 61.609375 L 394.300781 63.523438 L 364.035156 63.523438 Z M 364.035156 61.609375 " fill-opacity="0.498" fill-rule="nonzero"/><path fill="#d2e1f7" d="M 304.777344 67.660156 L 349.625 67.660156 L 349.625 69.578125 L 304.777344 69.578125 Z M 304.777344 67.660156 " fill-opacity="1" fill-rule="nonzero"/><path fill="#d2e1f7" d="M 298.464844 67.660156 L 300.769531 67.660156 L 300.769531 69.578125 L 298.464844 69.578125 Z M 298.464844 67.660156 " fill-opacity="1" fill-rule="nonzero"/><path fill="#d2e1f7" d="M 351.976562 67.660156 L 385.082031 67.660156 L 385.082031 69.578125 L 351.976562 69.578125 Z M 351.976562 67.660156 " fill-opacity="1" fill-rule="nonzero"/><path fill="#d2e1f7" d="M 304.777344 73.714844 L 327.792969 73.714844 L 327.792969 75.628906 L 304.777344 75.628906 Z M 304.777344 73.714844 " fill-opacity="0.498" fill-rule="nonzero"/><path fill="#d2e1f7" d="M 298.464844 73.714844 L 300.769531 73.714844 L 300.769531 75.628906 L 298.464844 75.628906 Z M 298.464844 73.714844 " fill-opacity="1" fill-rule="nonzero"/><path fill="#d2e1f7" d="M 341.195312 73.714844 L 385.082031 73.714844 L 385.082031 75.628906 L 341.195312 75.628906 Z M 341.195312 73.714844 " fill-opacity="0.498" fill-rule="nonzero"/><path fill="#d2e1f7" d="M 388.386719 73.714844 L 394.300781 73.714844 L 394.300781 75.628906 L 388.386719 75.628906 Z M 388.386719 73.714844 " fill-opacity="1" fill-rule="nonzero"/><path fill="#d2e1f7" d="M 330.855469 73.714844 L 336.769531 73.714844 L 336.769531 75.628906 L 330.855469 75.628906 Z M 330.855469 73.714844 " fill-opacity="1" fill-rule="nonzero"/><path fill="#d2e1f7" d="M 304.777344 79.765625 L 316.355469 79.765625 L 316.355469 81.683594 L 304.777344 81.683594 Z M 304.777344 79.765625 " fill-opacity="1" fill-rule="nonzero"/><path fill="#d2e1f7" d="M 328.125 79.765625 L 339.703125 79.765625 L 339.703125 81.683594 L 328.125 81.683594 Z M 328.125 79.765625 " fill-opacity="1" fill-rule="nonzero"/><path fill="#d2e1f7" d="M 298.464844 79.765625 L 300.769531 79.765625 L 300.769531 81.683594 L 298.464844 81.683594 Z M 298.464844 79.765625 " fill-opacity="1" fill-rule="nonzero"/><path fill="#d2e1f7" d="M 344.015625 79.765625 L 374.003906 79.765625 L 374.003906 81.683594 L 344.015625 81.683594 Z M 344.015625 79.765625 " fill-opacity="0.298" fill-rule="nonzero"/><path fill="#d2e1f7" d="M 377.957031 79.765625 L 394.300781 79.765625 L 394.300781 81.683594 L 377.957031 81.683594 Z M 377.957031 79.765625 " fill-opacity="0.498" fill-rule="nonzero"/><path fill="#d2e1f7" d="M 319.5 79.765625 L 325.414062 79.765625 L 325.414062 81.683594 L 319.5 81.683594 Z M 319.5 79.765625 " fill-opacity="0.498" fill-rule="nonzero"/><path fill="#03254e" d="M 188.800781 52.398438 L 214.550781 52.398438 L 214.550781 75.335938 L 188.800781 75.335938 Z M 188.800781 52.398438 " fill-opacity="1" fill-rule="nonzero"/><path fill="#ffffff" d="M 197.601562 68.558594 L 192.894531 65.273438 L 192.894531 63.332031 L 197.601562 60.027344 L 197.601562 62.203125 L 194.667969 64.285156 L 197.601562 66.382812 Z M 199.128906 70.03125 L 202.886719 57.703125 L 204.25 57.703125 L 200.492188 70.03125 Z M 205.738281 68.558594 L 205.738281 66.394531 L 208.671875 64.292969 L 205.738281 62.210938 L 205.738281 60.035156 L 210.449219 63.339844 L 210.449219 65.285156 Z M 205.738281 68.558594 " fill-opacity="1" fill-rule="nonzero"/><path fill="#03254e" d="M 38.425781 230.289062 L 64.175781 230.289062 L 64.175781 253.222656 L 38.425781 253.222656 Z M 38.425781 230.289062 " fill-opacity="1" fill-rule="nonzero"/><path fill="#ffffff" d="M 47.226562 246.449219 L 42.515625 243.164062 L 42.515625 241.222656 L 47.226562 237.917969 L 47.226562 240.089844 L 44.292969 242.175781 L 47.226562 244.273438 Z M 48.753906 247.921875 L 52.511719 235.59375 L 53.875 235.59375 L 50.117188 247.921875 Z M 55.363281 246.449219 L 55.363281 244.285156 L 58.296875 242.183594 L 55.363281 240.101562 L 55.363281 237.925781 L 60.074219 241.230469 L 60.074219 243.171875 Z M 55.363281 246.449219 " fill-opacity="1" fill-rule="nonzero"/><path fill="#03254e" d="M 380.101562 219.898438 L 405.851562 219.898438 L 405.851562 242.832031 L 380.101562 242.832031 Z M 380.101562 219.898438 " fill-opacity="1" fill-rule="nonzero"/><path fill="#ffffff" d="M 388.914062 236.054688 L 384.203125 232.769531 L 384.203125 230.828125 L 388.914062 227.523438 L 388.914062 229.699219 L 385.980469 231.78125 L 388.914062 233.882812 Z M 390.441406 237.527344 L 394.199219 225.199219 L 395.558594 225.199219 L 391.800781 237.527344 Z M 397.046875 236.054688 L 397.046875 233.890625 L 399.984375 231.789062 L 397.046875 229.707031 L 397.046875 227.53125 L 401.757812 230.835938 L 401.757812 232.78125 Z M 397.046875 236.054688 " fill-opacity="1" fill-rule="nonzero"/><path fill="#d64e12" d="M 285.675781 221.25 C 285.867188 221.15625 286.109375 221.054688 286.386719 220.933594 Z M 285.675781 221.25 " fill-opacity="1" fill-rule="nonzero"/></svg>